# xmcd
#
# Track frame offsets:
#	150
#	11408
#	24021
#	38305
#	52593
#	66953
#	80867
#	93238
#	108620
#	123776
#	135845
#	150280
#	162649
#	175432
#	188170
#	200411
#	214234
#	228116
#
# Disc length: 3232 seconds
#
# Revision: 0
# Processed by: cddbd v1.4PL0 Copyright (c) Steve Scherf et al.
# Submitted via: dBpowerAMP V4.0
#
DISCID=d60c9e12
DTITLE=Kokomo Arnold - The Essential Kokomo Arnold Disc 1
DYEAR=2002
DGENRE=General Blues
TTITLE0=Busy Bootin'
TTITLE1=Long And Tall
TTITLE2=Milk Cow Blues
TTITLE3=Dark Angel
TTITLE4=Cold Winter Blues
TTITLE5=Back To The Woods
TTITLE6=Little House (I'm Gonna Chase These Peppers)
TTITLE7=Back Door Blues
TTITLE8=Jet Black Snake
TTITLE9=Shake That Thing
TTITLE10=Black Mattie
TTITLE11=Mister Charlie
TTITLE12=Salty Dog
TTITLE13=Bad Luck Blues
TTITLE14=Set Down Gal
TTITLE15=Sagefield Woman Blues
TTITLE16=Delmar Avenue
TTITLE17=Wild Water Blues
EXTD=william hale
EXTT0=
EXTT1=
EXTT2=
EXTT3=
EXTT4=
EXTT5=
EXTT6=
EXTT7=
EXTT8=
EXTT9=
EXTT10=
EXTT11=
EXTT12=
EXTT13=
EXTT14=
EXTT15=
EXTT16=
EXTT17=
PLAYORDER=
